<?xml version="1.0" encoding="UTF-8" standalone="no"?>
<svg
   xmlns:dc="http://purl.org/dc/elements/1.1/"
   xmlns:cc="http://creativecommons.org/ns#"
   xmlns:rdf="http://www.w3.org/1999/02/22-rdf-syntax-ns#"
   xmlns:svg="http://www.w3.org/2000/svg"
   xmlns="http://www.w3.org/2000/svg"
   version="1.1"
   id="svg9523"
   viewBox="0 0 744.09448819 1052.3622047"
   height="297mm"
   width="210mm">
  <defs
     id="defs9525" />
  <metadata
     id="metadata9528">
    <rdf:RDF>
      <cc:Work
         rdf:about="">
        <dc:format>image/svg+xml</dc:format>
        <dc:type
           rdf:resource="http://purl.org/dc/dcmitype/StillImage" />
        <dc:title></dc:title>
      </cc:Work>
    </rdf:RDF>
  </metadata>
  <g
     id="layer1">
    <g
       id="g9028"
       transform="matrix(1.0782864,0,0,1.0782864,-29.126265,-69.279453)">
      <circle
         style="opacity:1;fill:#1c75bc;fill-opacity:1;stroke:none;stroke-width:0.20248245;stroke-linecap:round;stroke-linejoin:round;stroke-miterlimit:4;stroke-dasharray:none;stroke-opacity:1"
         id="circle7306"
         cx="279.76511"
         cy="250.39748"
         r="102.47128" />
      <g
         id="g7312"
         transform="matrix(1.169548,0,0.01716727,1.169548,-885.88672,-556.10488)"
         style="fill:#1c75bc;fill-opacity:1">
        <path
           style="font-style:italic;font-variant:normal;font-weight:normal;font-stretch:normal;font-size:medium;line-height:125%;font-family:'Gunship Italic';-inkscape-font-specification:'Gunship Italic, Italic';text-align:start;letter-spacing:0px;word-spacing:0px;writing-mode:lr-tb;text-anchor:start;fill:#1c75bc;fill-opacity:1;stroke:none;stroke-width:1px;stroke-linecap:butt;stroke-linejoin:miter;stroke-opacity:1"
           d="m 1213.8583,656.93415 18.5919,0 -16.9639,52.17281 -18.5919,0 6.0831,-18.69148 -35.2132,0 -6.083,18.69148 -18.6775,0 16.964,-52.17281 18.6775,0 -6.9398,21.32279 35.2131,0 6.9397,-21.32279 z"
           id="path7314" />
        <path
           style="font-style:italic;font-variant:normal;font-weight:normal;font-stretch:normal;font-size:medium;line-height:125%;font-family:'Gunship Italic';-inkscape-font-specification:'Gunship Italic, Italic';text-align:start;letter-spacing:0px;word-spacing:0px;writing-mode:lr-tb;text-anchor:start;fill:#1c75bc;fill-opacity:1;stroke:none;stroke-width:1px;stroke-linecap:butt;stroke-linejoin:miter;stroke-opacity:1"
           d="m 1122.2473,689.14518 -40.9535,0 q -2.656,0 -4.7122,-1.08883 -1.9706,-1.0888 -3.1701,-2.90351 -1.1138,-1.90545 -1.3708,-4.35529 -0.1713,-2.54061 0.7711,-5.3534 l 1.5422,-4.80897 q 0.9424,-2.81279 2.7416,-5.26265 1.8849,-2.54059 4.1982,-4.3553 2.3989,-1.90543 5.0549,-2.99426 2.7417,-1.08882 5.3977,-1.08882 l 59.5453,0 -4.1982,12.97515 -53.8906,0 -2.3133,7.07735 40.9534,0 q 2.656,0 4.6266,1.08883 2.0562,1.08882 3.17,2.90353 1.1995,1.81471 1.3709,4.35529 0.257,2.44985 -0.6855,5.26266 l -1.5421,4.80896 q -0.9425,2.8128 -2.8274,5.35338 -1.7992,2.44987 -4.1981,4.3553 -2.3133,1.8147 -5.055,2.90353 -2.6559,1.08883 -5.3119,1.08883 l -59.5453,0 4.1982,-12.97516 53.8906,0 2.3133,-6.98662 z"
           id="path7316" />
      </g>
      <g
         style="fill:#ffffff"
         transform="matrix(1.1541178,0,-0.02724889,1.1670824,-1091.8768,-764.01385)"
         id="g7318">
        <path
           id="path7320"
           d="m 1209.7865,836.5179 -3.7106,12.97248 -53.8872,0 -7.4193,26.22375 27.1441,0 0,0.008 26.7431,0 -3.7044,12.96867 -59.7147,0 c -1.7136,0 -3.2633,-0.36248 -4.6486,-1.08836 -1.3484,-0.78637 -2.4343,-1.81529 -3.2592,-3.08559 -0.825,-1.27031 -1.3408,-2.72404 -1.5447,-4.35726 -0.2611,-1.63325 -0.1252,-3.35596 0.4099,-5.17067 l 7.0441,-24.76878 c 0.5147,-1.87521 1.3595,-3.6329 2.5264,-5.26614 1.2037,-1.69372 2.5715,-3.14364 4.1086,-4.35344 1.5169,-1.27029 3.1813,-2.26806 4.9946,-2.99394 1.7562,-0.7259 3.4943,-1.08836 5.2078,-1.08836 l 59.7147,0 z"
           style="font-style:italic;font-variant:normal;font-weight:normal;font-stretch:normal;font-size:medium;line-height:125%;font-family:'Gunship Italic';-inkscape-font-specification:'Gunship Italic, Italic';text-align:start;letter-spacing:0px;word-spacing:0px;writing-mode:lr-tb;text-anchor:start;fill:#ffffff;fill-opacity:1;stroke:none;stroke-width:1px;stroke-linecap:butt;stroke-linejoin:miter;stroke-opacity:1" />
        <path
           style="font-style:italic;font-variant:normal;font-weight:normal;font-stretch:normal;font-size:medium;line-height:125%;font-family:'Gunship Italic';-inkscape-font-specification:'Gunship Italic, Italic';text-align:start;letter-spacing:0px;word-spacing:0px;writing-mode:lr-tb;text-anchor:start;fill:#ffffff;fill-opacity:1;stroke:none;stroke-width:1px;stroke-linecap:butt;stroke-linejoin:miter;stroke-opacity:1"
           d="m 1267.25,856.32924 1.943,-6.83633 -35.2984,0 -10.9064,39.19724 -18.6773,0 10.6837,-38.47136 c 0.5393,-1.87517 1.3699,-3.62937 2.4919,-5.2626 1.1764,-1.6937 2.507,-3.14545 3.9917,-4.35525 1.539,-1.27027 3.1766,-2.26834 4.9127,-2.99422 1.7932,-0.72588 3.5753,-1.08882 5.346,-1.08882 l 46.7789,0 c 1.7135,0 3.2443,0.36294 4.5925,1.08882 1.3452,0.66538 2.4465,1.60296 3.3036,2.81275 0.854,1.1493 1.4054,2.54056 1.6544,4.17379 0.2459,1.57273 0.1264,3.26644 -0.3587,5.08112 l -10.8293,39.01577 -18.5918,0 5.4561,-19.4954 -82.6436,0.17678 3.5075,-12.86552 z"
           id="path7322" />
      </g>
      <g
         id="g7326"
         transform="matrix(1.2666607,0,0,1.2666607,-1316.8567,-1371.3004)"
         style="fill:#ffffff;fill-opacity:1">
        <path
           id="path7328"
           style="font-style:italic;font-variant:normal;font-weight:normal;font-stretch:normal;font-size:16.19056892px;line-height:125%;font-family:'Gunship Italic';-inkscape-font-specification:'Gunship Italic, Italic';text-align:start;letter-spacing:0px;word-spacing:0px;writing-mode:lr-tb;text-anchor:start;fill:#ffffff;fill-opacity:1;stroke:none;stroke-width:1px;stroke-linecap:butt;stroke-linejoin:miter;stroke-opacity:1"
           d="m 1205.9727,1309.5349 11.9245,0 1.1188,-3.6672 -11.9245,0 -1.1188,3.6672 z m -1.1668,3.9001 -1.4963,5.0061 -6.3096,0 3.7049,-12.3406 q 0.2803,-0.9022 0.855,-1.6881 0.6023,-0.8149 1.3592,-1.397 0.7846,-0.6112 1.6671,-0.9605 0.9114,-0.3493 1.8086,-0.3493 l 15.8029,0 q 0.8683,0 1.5487,0.3493 0.6792,0.3202 1.1089,0.9023 0.4286,0.553 0.5486,1.3388 0.1189,0.7567 -0.1337,1.6299 l -3.7554,12.5152 -6.2806,0 1.4964,-5.0061 -11.9245,0 z" />
        <path
           id="path7330"
           style="font-style:italic;font-variant:normal;font-weight:normal;font-stretch:normal;font-size:16.19056892px;line-height:125%;font-family:'Gunship Italic';-inkscape-font-specification:'Gunship Italic, Italic';text-align:start;letter-spacing:0px;word-spacing:0px;writing-mode:lr-tb;text-anchor:start;fill:#ffffff;fill-opacity:1;stroke:none;stroke-width:1px;stroke-linecap:butt;stroke-linejoin:miter;stroke-opacity:1"
           d="m 1232.235,1314.2791 3.4938,-12.5735 -5.829,0 -3.4227,12.3406 q -0.259,0.9023 -0.1737,1.7172 0.1108,0.7859 0.4823,1.3971 0.3971,0.5821 1.0257,0.9314 0.6552,0.3492 1.4842,0.3492 l 18.5834,0 1.148,-4.162 -16.7919,0 z" />
        <path
           id="path7332"
           style="font-style:italic;font-variant:normal;font-weight:normal;font-stretch:normal;font-size:16.19056892px;line-height:125%;font-family:'Gunship Italic';-inkscape-font-specification:'Gunship Italic, Italic';text-align:start;letter-spacing:0px;word-spacing:0px;writing-mode:lr-tb;text-anchor:start;fill:#ffffff;fill-opacity:1;stroke:none;stroke-width:1px;stroke-linecap:butt;stroke-linejoin:miter;stroke-opacity:1"
           d="m 1271.5156,1301.7056 -1.2668,4.1621 -9.1772,0 -3.8558,12.5734 -6.4329,0 3.8558,-12.5734 -9.2067,0 1.2668,-4.1621 24.8168,0 z" />
        <path
           id="path7334"
           style="font-style:italic;font-variant:normal;font-weight:normal;font-stretch:normal;font-size:16.19056892px;line-height:125%;font-family:'Gunship Italic';-inkscape-font-specification:'Gunship Italic, Italic';text-align:start;letter-spacing:0px;word-spacing:0px;writing-mode:lr-tb;text-anchor:start;fill:#ffffff;fill-opacity:1;stroke:none;stroke-width:1px;stroke-linecap:butt;stroke-linejoin:miter;stroke-opacity:1"
           d="m 1278.1604,1314.2791 18.1762,0 -1.2426,4.162 -20.1154,0 q -0.8972,0 -1.6065,-0.3492 -0.6805,-0.3493 -1.1103,-0.9314 -0.402,-0.6112 -0.522,-1.3971 -0.092,-0.8149 0.1879,-1.7172 l 2.3853,-7.9457 q 0.2804,-0.9022 0.855,-1.6881 0.6023,-0.8149 1.3592,-1.397 0.7847,-0.6112 1.6671,-0.9605 0.9114,-0.3493 1.8087,-0.3493 l 20.1153,0 -1.2425,4.1621 -18.1762,0 -0.6856,2.2702 16.9027,0 -1.1668,3.9001 -16.9027,0 -0.6869,2.2411 z" />
        <path
           id="path7336"
           style="font-style:italic;font-variant:normal;font-weight:normal;font-stretch:normal;font-size:16.19056892px;line-height:125%;font-family:'Gunship Italic';-inkscape-font-specification:'Gunship Italic, Italic';text-align:start;letter-spacing:0px;word-spacing:0px;writing-mode:lr-tb;text-anchor:start;fill:#ffffff;fill-opacity:1;stroke:none;stroke-width:1px;stroke-linecap:butt;stroke-linejoin:miter;stroke-opacity:1"
           d="m 1319.8729,1308.5454 0.8131,-2.6777 -11.9245,0 -3.7819,12.5734 -6.3096,0 5.0245,-16.7355 19.5944,0 q 0.8972,0 1.6922,0.3202 0.795,0.3201 1.3116,0.9022 0.5455,0.5822 0.7247,1.3971 0.1779,0.7858 -0.1292,1.7463 l -0.581,2.0083 q -0.2815,0.8731 -0.9706,1.6881 -0.6904,0.7858 -1.5909,1.397 -0.8727,0.5821 -1.8407,0.9605 -0.9693,0.3493 -1.7797,0.3493 l 2.7987,5.9665 -6.7726,0 -4.4986,-9.8957 8.2198,0 z" />
      </g>
      <g
         transform="matrix(1.2666607,0,-0.02675941,1.2666607,-1281.7999,-1371.3004)"
         id="g7338"
         style="fill:#1c75bc;fill-opacity:1">
        <path
           id="path7340"
           style="font-style:italic;font-variant:normal;font-weight:normal;font-stretch:normal;font-size:16.19056892px;line-height:125%;font-family:'Gunship Italic';-inkscape-font-specification:'Gunship Italic, Italic';text-align:start;letter-spacing:0px;word-spacing:0px;writing-mode:lr-tb;text-anchor:start;fill:#1c75bc;fill-opacity:1;stroke:none;stroke-width:1px;stroke-linecap:butt;stroke-linejoin:miter;stroke-opacity:1"
           d="m 1340.4189,1305.8676 -3.0213,12.5734 -5.5963,0 4.013,-16.7355 17.8929,0 q 0.7702,0 1.3829,0.3493 0.6109,0.3202 1.0075,0.9023 0.3948,0.553 0.522,1.3388 0.1256,0.7567 -0.075,1.6299 l -2.9993,12.5152 -5.5707,0 3.0213,-12.5734 -10.5766,0 z" />
        <path
           id="path7342"
           style="font-style:italic;font-variant:normal;font-weight:normal;font-stretch:normal;font-size:16.19056892px;line-height:125%;font-family:'Gunship Italic';-inkscape-font-specification:'Gunship Italic, Italic';text-align:start;letter-spacing:0px;word-spacing:0px;writing-mode:lr-tb;text-anchor:start;fill:#1c75bc;fill-opacity:1;stroke:none;stroke-width:1px;stroke-linecap:butt;stroke-linejoin:miter;stroke-opacity:1"
           d="m 1364.7083,1309.5348 11.4804,0 0.9717,-3.6672 -11.4805,0 -0.9716,3.6672 z m -1.0111,3.9001 -1.2966,5.0061 -6.0746,0 3.2119,-12.3406 q 0.2439,-0.9022 0.7746,-1.6881 0.5564,-0.8149 1.2684,-1.397 0.7378,-0.6112 1.5774,-0.9605 0.8674,-0.3493 1.7312,-0.3493 l 15.2144,0 q 0.836,0 1.501,0.3493 0.6632,0.3202 1.0937,0.9023 0.4285,0.553 0.5666,1.3388 0.1362,0.7567 -0.082,1.6299 l -3.2556,12.5152 -6.0467,0 1.2967,-5.0061 -11.4805,0 z" />
        <path
           id="path7344"
           style="font-style:italic;font-variant:normal;font-weight:normal;font-stretch:normal;font-size:16.19056892px;line-height:125%;font-family:'Gunship Italic';-inkscape-font-specification:'Gunship Italic, Italic';text-align:start;letter-spacing:0px;word-spacing:0px;writing-mode:lr-tb;text-anchor:start;fill:#1c75bc;fill-opacity:1;stroke:none;stroke-width:1px;stroke-linecap:butt;stroke-linejoin:miter;stroke-opacity:1"
           d="m 1410.0037,1301.7055 -1.0766,4.1621 -8.6661,0 -3.2793,12.5734 -6.0747,0 3.2795,-12.5734 -8.6939,0 1.0765,-4.1621 23.4346,0 z" />
        <path
           id="path7346"
           style="font-style:italic;font-variant:normal;font-weight:normal;font-stretch:normal;font-size:16.19056892px;line-height:125%;font-family:'Gunship Italic';-inkscape-font-specification:'Gunship Italic, Italic';text-align:start;letter-spacing:0px;word-spacing:0px;writing-mode:lr-tb;text-anchor:start;fill:#1c75bc;fill-opacity:1;stroke:none;stroke-width:1px;stroke-linecap:butt;stroke-linejoin:miter;stroke-opacity:1"
           d="m 1414.5018,1318.441 4.356,-16.7355 -6.1025,0 -4.356,16.7355 6.1025,0 z" />
        <path
           id="path7348"
           style="font-style:italic;font-variant:normal;font-weight:normal;font-stretch:normal;font-size:16.19056892px;line-height:125%;font-family:'Gunship Italic';-inkscape-font-specification:'Gunship Italic, Italic';text-align:start;letter-spacing:0px;word-spacing:0px;writing-mode:lr-tb;text-anchor:start;fill:#1c75bc;fill-opacity:1;stroke:none;stroke-width:1px;stroke-linecap:butt;stroke-linejoin:miter;stroke-opacity:1"
           d="m 1445.3662,1301.7055 -6.3811,0 -8.5737,10.5652 -3.046,-10.5652 -6.3812,0 5.1461,16.7355 5.3779,0 13.858,-16.7355 z" />
        <path
           id="path7350"
           style="font-style:italic;font-variant:normal;font-weight:normal;font-stretch:normal;font-size:16.19056892px;line-height:125%;font-family:'Gunship Italic';-inkscape-font-specification:'Gunship Italic, Italic';text-align:start;letter-spacing:0px;word-spacing:0px;writing-mode:lr-tb;text-anchor:start;fill:#1c75bc;fill-opacity:1;stroke:none;stroke-width:1px;stroke-linecap:butt;stroke-linejoin:miter;stroke-opacity:1"
           d="m 1450.1804,1314.279 17.4993,0 -1.2223,4.162 -19.3662,0 q -0.8639,0 -1.5447,-0.3492 -0.6528,-0.3493 -1.063,-0.9314 -0.3832,-0.6112 -0.4939,-1.3971 -0.084,-0.8149 0.1916,-1.7172 l 2.3461,-7.9457 q 0.2754,-0.9022 0.8336,-1.6881 0.585,-0.8149 1.3174,-1.397 0.7591,-0.6112 1.611,-0.9605 0.8796,-0.3493 1.7434,-0.3493 l 19.3663,0 -1.2222,4.1621 -17.4993,0 -0.6743,2.2702 16.2732,0 -1.1476,3.9001 -16.2732,0 -0.6753,2.2411 z" />
      </g>
    </g>
    <g
       id="g9451"
       transform="matrix(1.4378246,0,0,1.4378246,-272.89142,-217.46205)">
      <circle
         r="69.549515"
         cy="519.33545"
         cx="372.04724"
         id="circle4798"
         style="opacity:1;fill:#1c75bc;fill-opacity:1;stroke:none;stroke-width:0.20248245;stroke-linecap:round;stroke-linejoin:round;stroke-miterlimit:4;stroke-dasharray:none;stroke-opacity:1" />
      <g
         style="fill:#ffffff"
         transform="matrix(0.75084085,0,-0.02957353,0.75927532,-508.65686,-135.61874)"
         id="g4804">
        <path
           id="path4806"
           d="m 1209.7865,836.5179 -3.7106,12.97248 -53.8872,0 -7.4193,26.22375 27.1441,0 0,0.008 26.7431,0 -3.7044,12.96867 -59.7147,0 c -1.7136,0 -3.2633,-0.36248 -4.6486,-1.08836 -1.3484,-0.78637 -2.4343,-1.81529 -3.2592,-3.08559 -0.825,-1.27031 -1.3408,-2.72404 -1.5447,-4.35726 -0.2611,-1.63325 -0.1252,-3.35596 0.4099,-5.17067 l 7.0441,-24.76878 c 0.5147,-1.87521 1.3595,-3.6329 2.5264,-5.26614 1.2037,-1.69372 2.5715,-3.14364 4.1086,-4.35344 1.5169,-1.27029 3.1813,-2.26806 4.9946,-2.99394 1.7562,-0.7259 3.4943,-1.08836 5.2078,-1.08836 l 59.7147,0 z"
           style="font-style:italic;font-variant:normal;font-weight:normal;font-stretch:normal;font-size:medium;line-height:125%;font-family:'Gunship Italic';-inkscape-font-specification:'Gunship Italic, Italic';text-align:start;letter-spacing:0px;word-spacing:0px;writing-mode:lr-tb;text-anchor:start;fill:#ffffff;fill-opacity:1;stroke:none;stroke-width:1px;stroke-linecap:butt;stroke-linejoin:miter;stroke-opacity:1" />
        <path
           style="font-style:italic;font-variant:normal;font-weight:normal;font-stretch:normal;font-size:medium;line-height:125%;font-family:'Gunship Italic';-inkscape-font-specification:'Gunship Italic, Italic';text-align:start;letter-spacing:0px;word-spacing:0px;writing-mode:lr-tb;text-anchor:start;fill:#ffffff;fill-opacity:1;stroke:none;stroke-width:1px;stroke-linecap:butt;stroke-linejoin:miter;stroke-opacity:1"
           d="m 1267.25,856.32924 1.943,-6.83633 -35.2984,0 -10.9064,39.19724 -18.6773,0 10.6837,-38.47136 c 0.5393,-1.87517 1.3699,-3.62937 2.4919,-5.2626 1.1764,-1.6937 2.507,-3.14545 3.9917,-4.35525 1.539,-1.27027 3.1766,-2.26834 4.9127,-2.99422 1.7932,-0.72588 3.5753,-1.08882 5.346,-1.08882 l 46.7789,0 c 1.7135,0 3.2443,0.36294 4.5925,1.08882 1.3452,0.66538 2.4465,1.60296 3.3036,2.81275 0.854,1.1493 1.4054,2.54056 1.6544,4.17379 0.2459,1.57273 0.1264,3.26644 -0.3587,5.08112 l -10.8293,39.01577 -18.5918,0 5.4561,-19.4954 -82.6436,0.17678 3.5075,-12.86552 z"
           id="path4808" />
      </g>
    </g>
    <g
       style="fill:#1c75bc;fill-opacity:1"
       id="g4426"
       transform="matrix(1.2305109,0,0,1.2305109,-1223.0851,-203.66233)">
      <path
         id="path4360"
         d="m 1209.7865,836.5179 -3.7106,12.97248 -53.8872,0 -7.4193,26.22375 27.1441,0 0,0.008 26.7431,0 -3.7044,12.96867 -59.7147,0 c -1.7136,0 -3.2633,-0.36248 -4.6486,-1.08836 -1.3484,-0.78637 -2.4343,-1.81529 -3.2592,-3.08559 -0.825,-1.27031 -1.3408,-2.72404 -1.5447,-4.35726 -0.2611,-1.63325 -0.1252,-3.35596 0.4099,-5.17067 l 7.0441,-24.76878 c 0.5147,-1.87521 1.3595,-3.6329 2.5264,-5.26614 1.2037,-1.69372 2.5715,-3.14364 4.1086,-4.35344 1.5169,-1.27029 3.1813,-2.26806 4.9946,-2.99394 1.7562,-0.7259 3.4943,-1.08836 5.2078,-1.08836 l 59.7147,0 z"
         style="font-style:italic;font-variant:normal;font-weight:normal;font-stretch:normal;font-size:medium;line-height:125%;font-family:'Gunship Italic';-inkscape-font-specification:'Gunship Italic, Italic';text-align:start;letter-spacing:0px;word-spacing:0px;writing-mode:lr-tb;text-anchor:start;fill:#1c75bc;fill-opacity:1;stroke:none;stroke-width:1px;stroke-linecap:butt;stroke-linejoin:miter;stroke-opacity:1" />
      <path
         style="font-style:italic;font-variant:normal;font-weight:normal;font-stretch:normal;font-size:medium;line-height:125%;font-family:'Gunship Italic';-inkscape-font-specification:'Gunship Italic, Italic';text-align:start;letter-spacing:0px;word-spacing:0px;writing-mode:lr-tb;text-anchor:start;fill:#1c75bc;fill-opacity:1;stroke:none;stroke-width:1px;stroke-linecap:butt;stroke-linejoin:miter;stroke-opacity:1"
         d="m 1267.25,856.32924 1.943,-6.83633 -35.2984,0 -10.9064,39.19724 -18.6773,0 10.6837,-38.47136 c 0.5393,-1.87517 1.3699,-3.62937 2.4919,-5.2626 1.1764,-1.6937 2.507,-3.14545 3.9917,-4.35525 1.539,-1.27027 3.1766,-2.26834 4.9127,-2.99422 1.7932,-0.72588 3.5753,-1.08882 5.346,-1.08882 l 46.7789,0 c 1.7135,0 3.2443,0.36294 4.5925,1.08882 1.3452,0.66538 2.4465,1.60296 3.3036,2.81275 0.854,1.1493 1.4054,2.54056 1.6544,4.17379 0.2459,1.57273 0.1264,3.26644 -0.3587,5.08112 l -10.8293,39.01577 -18.5918,0 5.4561,-19.4954 -82.6436,0.17678 3.5075,-12.86552 z"
         id="path4338" />
    </g>
  </g>
</svg>
